<?xml version="1.0" encoding="UTF-8" standalone="no"?>
<!-- Created with Inkscape (http://www.inkscape.org/) -->

<svg
   width="2756.0237"
   height="1185.2146"
   viewBox="0 0 2756.0236 1185.2146"
   version="1.1"
   id="svg5"
   xml:space="preserve"
   xmlns:xlink="http://www.w3.org/1999/xlink"
   xmlns="http://www.w3.org/2000/svg"
   xmlns:svg="http://www.w3.org/2000/svg"><defs
     id="defs2"><linearGradient
       id="linearGradient3"><stop
         style="stop-color:#ff6906;stop-opacity:1;"
         offset="0"
         id="stop1" /><stop
         style="stop-color:#d428f6;stop-opacity:1"
         offset="1"
         id="stop3" /></linearGradient><linearGradient
       xlink:href="#linearGradient3"
       id="linearGradient8"
       gradientUnits="userSpaceOnUse"
       gradientTransform="matrix(3.2062517,0,0,3.2062517,18562.189,10580.51)"
       x1="-5676.729"
       y1="-3111.0332"
       x2="-5092.8779"
       y2="-3138.0718" /></defs><g
     id="layer1"
     transform="translate(4.2902169,70.176093)"><path
       id="path6"
       style="color:#000000;-inkscape-font-specification:Bolota;fill:url(#linearGradient8);fill-opacity:1;stroke-width:3.20624;stroke-miterlimit:2;-inkscape-stroke:none;paint-order:stroke fill markers"
       d="m 51.142628,199.08199 c -36.954513,0 -55.4328227,18.47217 -55.4328227,55.42677 v 535.8449 c 0,36.95429 18.4783097,55.42677 55.4328227,55.42677 H 322.7536 c 38.80233,0 72.37103,-4.30919 100.70291,-12.93145 28.33131,-8.62286 51.73404,-20.63546 70.21166,-36.03281 18.47733,-15.3977 32.02522,-33.56529 40.64799,-54.50627 9.23866,-21.55659 13.85814,-44.95975 13.85814,-70.21184 0,-68.36597 -34.48878,-113.0204 -103.4701,-133.96138 -8.00717,-2.46368 -12.01075,-7.69885 -12.01075,-15.7055 0,-8.00662 3.69909,-13.55285 11.09008,-16.63242 31.41077,-10.47068 53.58316,-26.17618 66.51718,-47.11681 12.9343,-21.55694 19.4003,-48.96398 19.4003,-82.22308 0,-27.10016 -4.00416,-51.42316 -12.01104,-72.97974 -8.00688,-22.17251 -21.25029,-40.96242 -39.72733,-56.36012 C 460.10149,231.72195 436.69818,220.02009 407.7507,212.01312 379.4191,203.3902 344.93003,199.08199 304.28031,199.08199 Z M 1212.2255,218.35701 c -32.8968,0 -49.3463,16.44872 -49.3463,49.34613 v 477.01144 c 0,32.8971 16.4495,49.34614 49.3463,49.34614 h 92.9311 c 32.8971,0 49.3466,-16.44904 49.3466,-49.34614 V 625.46312 c 0,-6.0313 1.3728,-10.41552 4.1143,-13.15719 2.7409,-3.28925 6.0309,-4.9344 9.8692,-4.9344 6.5788,0 11.5137,3.8337 14.8036,11.5098 l 67.4379,147.21865 c 3.8384,8.7726 9.5953,15.62405 17.2709,20.55876 7.6762,4.93443 16.1729,7.40166 25.4935,7.40166 h 132.4147 c 3.2718,0 6.2592,-0.22144 9.0489,-0.59475 -9.6253,-7.60843 -18.7088,-15.89595 -27.0467,-25.06778 l -0.1096,-0.11879 -0.1096,-0.12514 c -52.3185,-58.27844 -73.6498,-141.40895 -73.6498,-242.34109 0,-100.93281 21.331,-184.05619 73.6498,-242.33527 l 0.1096,-0.12514 0.1096,-0.12513 c 14.8546,-16.34005 31.9087,-30.07594 50.7176,-41.50592 -0.084,-4.17615 -1.0827,-7.87133 -3.1123,-11.02786 -4.9341,-8.22406 -14.8033,-12.33641 -29.6075,-12.33641 h -132.4147 c -9.3206,0 -17.8173,2.46755 -25.4935,7.40198 -7.6756,4.93443 -13.4325,11.78614 -17.2709,20.55876 l -67.4379,147.21828 c -1.6446,4.38647 -3.8398,7.4042 -6.5813,9.049 -2.7421,1.64514 -5.4813,2.4672 -8.2223,2.4672 -3.8383,0 -7.1283,-1.37261 -9.8692,-4.11425 -2.7415,-2.74167 -4.1143,-7.12589 -4.1143,-13.15685 V 267.70326 c 0,-32.8971 -16.4495,-49.34614 -49.3466,-49.34614 z m -263.99606,7.90276 c -77.19494,0 -134.61704,20.71178 -172.27352,62.13362 -19.47152,21.69031 -33.79562,49.6392 -43.07148,83.71972 V 582.5609 h 58.00686 c 23.30556,0 49.88954,9.54918 67.60709,27.59749 18.04915,17.71741 27.59749,44.30144 27.59749,67.60672 v 49.42153 c 0,0.70089 -0.0894,1.42324 -0.10669,2.12927 19.09582,3.49835 39.8046,5.30413 62.24025,5.30413 70.74596,0 124.64486,-17.04575 161.80276,-51.02469 V 277.87914 c -37.1579,-34.37039 -91.0559,-51.61937 -161.80276,-51.61937 z m 1065.42096,5.56733 c -12.7086,0 -23.0646,3.99629 -31.0665,11.99813 -7.5314,7.53149 -11.2972,17.65617 -11.2972,30.3651 v 49.42151 c 0,12.70894 3.7658,23.0648 11.2972,31.06698 8.0019,7.53115 18.3579,11.29691 31.0665,11.29691 h 32.4758 c 12.7097,0 22.8345,4.0027 30.3656,12.00453 8.0017,7.53147 11.9986,17.6504 11.9986,30.35934 v 275.36185 c 0,12.70897 3.7657,23.06483 11.2969,31.06707 8.0022,7.53115 18.3582,11.29689 31.0667,11.29689 h 79.7869 c 12.7091,0 22.828,-3.76574 30.3591,-11.29689 8.0017,-8.00224 12.005,-18.3581 12.005,-31.06707 V 660.5565 c -13.7353,-41.46226 -19.8639,-88.98373 -19.8639,-141.49476 0,-95.86436 20.2445,-175.24637 70.3872,-231.10052 l 0.1096,-0.11879 0.1096,-0.12514 c 15.8739,-17.46154 34.2936,-31.90478 54.8126,-43.51618 -0.124,-0.12168 -0.2335,-0.25663 -0.3647,-0.37577 -7.5309,-8.00183 -17.6498,-11.99806 -30.3595,-11.99806 z m -180.9151,19.96375 c -83.2206,0 -145.1284,22.32578 -185.7248,66.9805 -40.0874,44.6557 -60.1359,113.67124 -60.1359,207.0415 0,93.36985 20.0485,162.38539 60.1359,207.04118 40.5964,44.65541 102.5042,66.9805 185.7248,66.9805 83.729,0 145.6362,-22.07505 185.7245,-66.22286 7.3481,-8.08234 14.009,-16.99478 20.0269,-26.68957 -1.8275,-7.79602 -2.837,-15.65582 -2.837,-23.2203 V 418.82279 h -21.9993 c -23.1464,0 -49.118,-8.56231 -67.2874,-25.66256 l -1.1646,-1.09586 -1.0957,-1.16486 c -17.1005,-18.16918 -25.6624,-44.14015 -25.6624,-67.28732 v -49.42151 c 0,-4.08798 0.3731,-8.29652 0.9201,-12.53069 -25.6792,-6.55904 -54.5353,-9.86914 -86.6251,-9.86914 z m 685.7623,8.1221 c -78.7041,0 -137.2504,21.11698 -175.6427,63.34815 -37.9123,42.23175 -56.8668,107.49857 -56.8668,195.80096 0,88.30177 18.9545,153.5692 56.8668,195.80075 38.3923,42.23143 96.9386,63.34844 175.6427,63.34844 79.1836,0 137.73,-20.87717 175.6425,-62.62834 38.3923,-42.23155 57.5934,-107.73879 57.5934,-196.52085 0,-88.78175 -19.2011,-154.04918 -57.5934,-195.80096 -37.9125,-42.23151 -96.4589,-63.34815 -175.6425,-63.34815 z M 563.28499,275.31191 c 1.42929,3.30884 2.79631,6.65362 4.02694,10.05063 10.45257,28.25542 15.22976,58.89693 15.22976,91.09633 0,40.10926 -7.83099,77.5756 -26.93401,109.41334 l -0.18166,0.29474 -0.17877,0.28843 c -7.87078,12.74388 -18.15006,23.37836 -29.40104,33.00804 14.40223,10.14169 27.55135,21.69479 38.26833,35.56919 25.22071,32.65152 36.89093,73.99675 36.89093,117.066 0,31.56172 -5.91469,62.33445 -17.99176,90.65814 -0.9521,2.29953 -2.02472,4.53843 -3.06822,6.79433 h 210.94235 c 12.70911,0 22.82807,-3.7657 30.35948,-11.29688 8.00198,-8.00218 12.0047,-18.35802 12.0047,-31.06695 v -49.42116 c 0,-12.70894 -4.00272,-22.82791 -12.0047,-30.35906 -7.53141,-8.00183 -17.65037,-12.00487 -30.35948,-12.00487 h -68.48365 c -16.9448,0 -28.24192,-2.82405 -33.89077,-8.47252 -5.64827,-5.64841 -8.47254,-16.94564 -8.47254,-33.89103 v -275.3622 c 0,-12.70893 -4.0033,-22.82784 -12.00499,-30.35905 -7.53112,-8.00183 -17.65009,-12.00452 -30.3592,-12.00452 z m 384.94445,85.09713 c 11.29711,0 20.4807,1.8827 27.54126,5.64844 7.06055,3.29508 12.70911,9.4174 16.94567,18.36093 4.23627,8.94256 7.06055,21.18209 8.47283,36.71507 1.8826,15.06268 2.8243,34.35921 2.8243,57.89435 0,24.94722 -0.9417,45.42169 -2.8243,61.426 -1.41228,15.53301 -4.23656,27.77161 -8.47283,36.7151 -4.23656,8.94355 -9.88512,15.06588 -16.94567,18.36093 -7.06056,3.29508 -16.00742,4.94086 -26.83339,4.94086 -10.82655,0 -20.0038,-1.64578 -27.53492,-4.94086 -7.06055,-3.29505 -12.7094,-9.41738 -16.94596,-18.36093 -4.23599,-8.94349 -7.29728,-21.18209 -9.18013,-36.7151 -1.41171,-15.5333 -2.1167,-35.53424 -2.1167,-60.01075 0,-24.47654 0.70499,-44.48388 2.1167,-60.01718 1.88285,-15.53302 4.94414,-27.77193 9.18013,-36.71545 4.23656,-8.94251 9.88541,-15.05942 16.94596,-18.3545 7.06027,-3.29476 16.00108,-4.94691 26.82705,-4.94691 z m -709.54602,4.96583 h 20.32705 c 25.86812,0 44.65135,3.69362 56.35358,11.084 11.70223,7.39073 17.55291,19.09261 17.55291,35.10589 0,16.0133 -5.85068,27.72158 -17.55291,35.11231 -11.70223,7.39073 -30.48546,11.08432 -56.35358,11.08432 h -20.32705 c -18.47704,0 -27.71642,-9.23944 -27.71642,-27.71674 v -36.95333 c 0,-18.47701 9.23938,-27.71645 27.71642,-27.71645 z M 1832.7353,396.4165 c 12.1792,0 22.0712,2.02734 29.6831,6.08675 7.6118,3.55225 13.7062,10.14681 18.2734,19.78866 4.5668,9.6409 7.6079,22.83782 9.13,39.58345 2.0296,16.23771 3.0434,37.04277 3.0434,62.41546 0,26.89435 -1.0138,48.96971 -3.0434,66.22255 -1.5221,16.7456 -4.5632,29.93583 -9.13,39.57733 -4.5672,9.64153 -10.6616,16.24256 -18.2734,19.79475 -7.6119,3.55222 -17.2482,5.32914 -28.919,5.32914 -11.6716,0 -21.5697,-1.77692 -29.6894,-5.32914 -7.6115,-3.55219 -13.6992,-10.15322 -18.2665,-19.79475 -4.5673,-9.6415 -7.8645,-22.83173 -9.8944,-39.57733 -1.5221,-16.74496 -2.2859,-38.31342 -2.2859,-64.70087 0,-26.38744 0.7638,-47.95559 2.2859,-64.70121 2.0299,-16.74594 5.3271,-29.93577 9.8944,-39.57731 4.5673,-9.64121 10.655,-16.24255 18.2665,-19.79477 7.6116,-3.55219 17.2542,-5.323 28.9253,-5.32271 z m 685.7623,0.26931 c 11.5171,0 20.8746,1.92215 28.0736,5.7613 7.198,3.35923 12.9579,9.59955 17.2775,18.71777 4.3187,9.11797 7.2018,21.5922 8.6418,37.42915 1.9195,15.35701 2.8742,35.03248 2.8742,59.02775 0,25.43454 -0.9547,46.31145 -2.8742,62.62834 -1.44,15.83632 -4.3231,28.3109 -8.6418,37.42912 -4.3196,9.11797 -10.0795,15.35828 -17.2775,18.71778 -7.199,3.35923 -16.316,5.04123 -27.3536,5.04123 -11.0376,0 -20.3948,-1.682 -28.0735,-5.04123 -7.1984,-3.3595 -12.958,-9.59981 -17.2776,-18.71778 -4.3187,-9.11822 -7.4359,-21.5928 -9.3554,-37.42912 -1.44,-15.83692 -2.1605,-36.23288 -2.1605,-61.18809 0,-24.95492 0.7205,-45.35146 2.1605,-61.1881 1.9195,-15.83698 5.0367,-28.31121 9.3554,-37.42914 4.3196,-9.11794 10.0792,-15.35826 17.2776,-18.71778 7.1986,-3.3592 16.3153,-5.0412 27.3535,-5.0412 z M 238.68342,587.10094 h 38.80069 c 25.86832,0 44.65158,3.69324 56.35352,11.08397 11.70281,7.39108 17.55926,19.09902 17.55926,35.11235 0,16.01359 -5.85645,27.71513 -17.55926,35.10586 -11.70194,7.39107 -30.4852,11.08403 -56.35352,11.08403 h -38.80069 c -18.47704,0 -27.71642,-9.23915 -27.71642,-27.71645 v -36.95334 c 0,-18.47695 9.23938,-27.71642 27.71642,-27.71642 z" /></g></svg>
